<?xml version="1.0" encoding="utf-8"?>
<!-- Generator: Adobe Illustrator 21.0.0, SVG Export Plug-In . SVG Version: 6.00 Build 0)  -->
<svg version="1.0" id="Layer_1" xmlns="http://www.w3.org/2000/svg" xmlns:xlink="http://www.w3.org/1999/xlink" x="0px" y="0px"
	 viewBox="0 0 24 24" style="enable-background:new 0 0 24 24;" xml:space="preserve">
<path d="M22,10.9c-0.3-4.8-4.1-8.7-9-8.9h-0.5c0,0,0,0,0,0C11,2,9.6,2.3,8.3,3C5,4.6,3,7.9,3,11.5c0,1.3,0.3,2.7,0.8,3.9l-1.8,5.3
	c-0.1,0.4,0,0.8,0.2,1C2.5,21.9,2.7,22,3,22c0.1,0,0.2,0,0.3-0.1l5.3-1.8c1.2,0.5,2.5,0.8,3.9,0.8c3.6,0,6.9-2,8.5-5.2
	c0.7-1.3,1-2.8,1-4.3L22,10.9z"/>
</svg>
