<?xml version="1.0" encoding="UTF-8"?>
<svg width="24px" height="24px" viewBox="0 0 24 24" version="1.1" xmlns="http://www.w3.org/2000/svg" xmlns:xlink="http://www.w3.org/1999/xlink">
    <!-- Generator: Sketch 61 (89581) - https://sketch.com -->
    <title>appbar__chat-plus</title>
    <desc>Created with Sketch.</desc>
    <g id="appbar__chat-plus" stroke="none" stroke-width="1" fill="none" fill-rule="evenodd">
        <g id="Group" transform="translate(17.000000, 9.000000)" fill="#000000">
            <rect id="Rectangle" x="3" y="0" width="1" height="6" rx="0.5"></rect>
            <rect id="Rectangle" transform="translate(3.500000, 3.000000) rotate(-90.000000) translate(-3.500000, -3.000000) " x="3" y="0" width="1" height="6" rx="0.5"></rect>
        </g>
        <path d="M17.9999794,16.4205575 C16.6064073,18.1029628 14.5348587,19.1101996 12.3124758,19.1110732 C11.1576811,19.1141321 10.0185049,18.8400246 8.98773387,18.311077 L4.00062099,19.999958 L5.66299195,14.933315 C5.14234711,13.8861061 4.87254221,12.7287633 4.87555308,11.555553 C4.87664285,8.69431521 6.46851761,6.07917042 8.98773387,4.80002896 C10.0185049,4.27108133 11.1576811,3.99697382 12.3124758,3.99995796 L12.7499418,3.99995796 C14.8546738,4.11797853 16.7229916,5.12188815 18.000621,6.65178743" id="Path" stroke="#000000" stroke-linecap="round" stroke-linejoin="round"></path>
    </g>
</svg>