<?xml version="1.0" encoding="UTF-8"?>
<svg width="36px" height="36px" viewBox="0 0 36 36" version="1.1" xmlns="http://www.w3.org/2000/svg" xmlns:xlink="http://www.w3.org/1999/xlink">
    <!-- Generator: Sketch 56.2 (81672) - https://sketch.com -->
    <title>avatar-shape</title>
    <desc>Created with Sketch.</desc>
    <g id="avatar-shape" stroke="none" stroke-width="1" fill="none" fill-rule="evenodd">
        <path d="M7.49733194,1.54658662 C10.4826924,0.515528872 13.9835818,0 18,0 C22.0164154,0 25.5173026,0.515528143 28.5026617,1.54658443 C31.2949143,2.51094534 33.4890499,4.70508025 34.4534134,7.49733194 C35.4844711,10.4826924 36,13.9835818 36,18 C36,21.9006607 35.5137591,25.3955839 34.5412773,28.4847698 C33.54411,31.6523676 30.9833,34.0813913 27.7674822,34.9099653 C24.9470919,35.6366551 21.6912645,36 18,36 C14.3087342,36 11.0529058,35.6366548 8.23251482,34.9099645 C5.01669731,34.0813891 2.4558875,31.6523651 1.45872169,28.4847666 C0.486240565,25.3955816 0,21.9006594 0,18 C0,13.9835846 0.515528143,10.4826974 1.54658443,7.49733827 C2.51094534,4.70508569 4.70508025,2.51095013 7.49733194,1.54658662 Z" id="Rectangle-Copy-12" fill="#3B3B3B"></path>
    </g>
</svg>